<svg width="22" height="17" viewBox="0 0 22 17" fill="none" xmlns="http://www.w3.org/2000/svg">
<path d="M21 7.99999H3.41403L8.70703 2.70699C8.80254 2.61474 8.87872 2.5044 8.93113 2.38239C8.98354 2.26039 9.01113 2.12917 9.01228 1.99639C9.01344 1.86361 8.98813 1.73193 8.93785 1.60904C8.88757 1.48614 8.81332 1.37449 8.71943 1.28059C8.62553 1.1867 8.51388 1.11245 8.39099 1.06217C8.26809 1.01189 8.13641 0.986585 8.00363 0.987739C7.87085 0.988893 7.73963 1.01648 7.61763 1.06889C7.49562 1.1213 7.38528 1.19748 7.29303 1.29299L0.293031 8.29299C0.10556 8.48052 0.000244141 8.73483 0.000244141 8.99999C0.000244141 9.26515 0.10556 9.51946 0.293031 9.70699L7.29303 16.707C7.48163 16.8891 7.73424 16.9899 7.99643 16.9877C8.25863 16.9854 8.50944 16.8802 8.69485 16.6948C8.88026 16.5094 8.98543 16.2586 8.98771 15.9964C8.98998 15.7342 8.88919 15.4816 8.70703 15.293L3.41403 9.99999H21C21.2652 9.99999 21.5196 9.89463 21.7071 9.7071C21.8947 9.51956 22 9.26521 22 8.99999C22 8.73477 21.8947 8.48042 21.7071 8.29288C21.5196 8.10535 21.2652 7.99999 21 7.99999Z" fill="white"/>
</svg>
